<?xml version="1.0" encoding="UTF-8"?><svg id="Layer_1" xmlns="http://www.w3.org/2000/svg" width="52.92mm" height="52.92mm" viewBox="0 0 150 150"><defs><style>.cls-1,.cls-2,.cls-3{stroke-width:0px;}.cls-2{fill:#fff;}.cls-3{fill:#e82063;}</style></defs><polygon class="cls-3" points="11.17 94.62 14.62 101.61 22.33 102.73 16.75 108.18 18.07 115.86 11.17 112.23 4.27 115.86 5.58 108.18 0 102.73 7.72 101.61 11.17 94.62"/><polygon class="cls-3" points="43.08 94.62 46.53 101.61 54.25 102.73 48.67 108.18 49.98 115.86 43.08 112.23 36.18 115.86 37.5 108.18 31.92 102.73 39.63 101.61 43.08 94.62"/><polygon class="cls-3" points="75 94.62 78.45 101.61 86.17 102.73 80.58 108.18 81.9 115.86 75 112.23 68.1 115.86 69.42 108.18 63.83 102.73 71.55 101.61 75 94.62"/><polygon class="cls-3" points="106.92 94.62 110.37 101.61 118.08 102.73 112.5 108.18 113.82 115.86 106.92 112.23 100.02 115.86 101.33 108.18 95.75 102.73 103.47 101.61 106.92 94.62"/><polygon class="cls-3" points="138.83 94.62 142.28 101.61 150 102.73 144.42 108.18 145.73 115.86 138.83 112.23 131.93 115.86 133.25 108.18 127.67 102.73 135.38 101.61 138.83 94.62"/><path class="cls-1" d="m23.61,72.39c-.3,0-.6,0-.9-.01-.63,0-1.25-.06-1.87-.16-.58-.1-1.13-.28-1.66-.55-.52-.26-.99-.61-1.4-1.02-.41-.41-.76-.88-1.02-1.4-.26-.52-.45-1.08-.54-1.66-.1-.62-.16-1.25-.17-1.88,0-.21-.01-.91-.01-.91v-23.1s0-.69.01-.89c0-.63.06-1.25.17-1.87.1-.58.28-1.14.54-1.66.26-.52.6-.99,1.02-1.4.41-.41.88-.76,1.4-1.02.52-.26,1.08-.45,1.65-.54.62-.1,1.25-.16,1.88-.16h.9s102.77-.01,102.77-.01h.91c.62.02,1.24.07,1.86.18.58.1,1.14.28,1.67.55,1.04.53,1.88,1.38,2.42,2.42.26.52.44,1.08.54,1.65.1.62.16,1.25.17,1.89,0,.28,0,.59,0,.89,0,.38,0,.73,0,1.09v20.93c0,.36,0,.72,0,1.08,0,.33,0,.62,0,.93-.01.62-.07,1.24-.17,1.85-.09.58-.28,1.14-.54,1.67-.26.51-.61.98-1.02,1.39-.41.41-.88.76-1.4,1.02-.53.27-1.09.45-1.67.55-.62.1-1.24.16-1.87.16-.29,0-.6.01-.9.01h-1.08s-101.69,0-101.69,0Z"/><g id="_Group_"><g id="_Group_2"><g id="_Group_3"><path id="_Path_" class="cls-2" d="m39.94,51.73c.02-1.7.91-3.26,2.36-4.15-.92-1.31-2.4-2.11-3.99-2.16-1.68-.18-3.31,1-4.16,1s-2.19-.99-3.61-.96c-1.87.06-3.56,1.1-4.47,2.73-1.93,3.35-.49,8.27,1.36,10.98.93,1.33,2.01,2.81,3.43,2.75,1.39-.06,1.91-.88,3.58-.88s2.14.88,3.59.85c1.49-.02,2.43-1.33,3.32-2.67.67-.94,1.18-1.99,1.52-3.09-1.77-.75-2.92-2.48-2.92-4.4Z"/><path id="_Path_2" class="cls-2" d="m37.21,43.64c.81-.97,1.21-2.23,1.11-3.49-1.24.13-2.39.72-3.21,1.66-.81.92-1.22,2.13-1.14,3.36,1.26.01,2.45-.55,3.24-1.53Z"/></g></g><path class="cls-2" d="m57.47,54.72h-4.73l-1.14,3.36h-2l4.48-12.42h2.08l4.48,12.42h-2.04l-1.14-3.36Zm-4.24-1.55h3.75l-1.85-5.45h-.05l-1.85,5.45Z"/><path class="cls-2" d="m70.33,53.55c0,2.81-1.51,4.62-3.78,4.62-1.17.06-2.28-.55-2.85-1.58h-.04v4.48h-1.86v-12.05h1.8v1.51h.03c.59-1.02,1.7-1.64,2.88-1.6,2.3,0,3.81,1.82,3.81,4.62Zm-1.91,0c0-1.83-.95-3.04-2.39-3.04s-2.38,1.23-2.38,3.04.96,3.05,2.38,3.05,2.39-1.2,2.39-3.05Z"/><path class="cls-2" d="m80.29,53.55c0,2.81-1.51,4.62-3.78,4.62-1.17.06-2.28-.55-2.85-1.58h-.04v4.48h-1.86v-12.05h1.8v1.51h.03c.59-1.02,1.7-1.64,2.88-1.6,2.3,0,3.81,1.82,3.81,4.62Zm-1.91,0c0-1.83-.95-3.04-2.39-3.04s-2.38,1.23-2.38,3.04.96,3.05,2.38,3.05c1.08,0,1.89-.67,2.22-1.79.11-.37.17-.79.17-1.26h0Z"/><path class="cls-2" d="m86.88,54.62c.14,1.23,1.33,2.04,2.97,2.04s2.69-.81,2.69-1.92c0-.96-.68-1.54-2.29-1.94l-1.61-.39c-2.28-.55-3.34-1.62-3.34-3.35,0-2.14,1.87-3.61,4.52-3.61s4.42,1.47,4.48,3.61h-1.88c-.11-1.24-1.14-1.99-2.63-1.99s-2.52.76-2.52,1.86c0,.88.65,1.39,2.25,1.79l1.37.34c2.55.6,3.61,1.63,3.61,3.44,0,2.32-1.85,3.78-4.79,3.78-2.75,0-4.61-1.42-4.73-3.67h1.9Z"/><path class="cls-2" d="m98.51,46.88v2.14h1.72v1.47h-1.72v4.99c0,.78.34,1.14,1.1,1.14.2,0,.41-.02.61-.04v1.46c-.34.06-.69.09-1.03.09-1.83,0-2.55-.69-2.55-2.44v-5.19h-1.32v-1.47h1.32v-2.14h1.87Z"/><path class="cls-2" d="m101.23,53.55c0-2.85,1.68-4.64,4.29-4.64s4.29,1.79,4.29,4.64-1.66,4.64-4.29,4.64-4.29-1.78-4.29-4.64Zm6.7,0c0-1.95-.9-3.11-2.4-3.11s-2.4,1.16-2.4,3.11.89,3.11,2.4,3.11,2.4-1.14,2.4-3.11h0Z"/><path class="cls-2" d="m111.35,49.03h1.77v1.54h.04c.25-.99,1.16-1.67,2.18-1.64.21,0,.43.02.64.07v1.74c-.27-.08-.55-.12-.83-.11-1.03-.04-1.91.76-1.95,1.8,0,.1,0,.19.01.29v5.37h-1.86v-9.05Z"/><path class="cls-2" d="m124.55,55.42c-.25,1.64-1.85,2.77-3.9,2.77-2.63,0-4.27-1.76-4.27-4.6s1.64-4.68,4.19-4.68,4.08,1.72,4.08,4.47v.64h-6.39v.11c-.11,1.3.84,2.44,2.14,2.56.1,0,.2.01.29,0,.9.08,1.75-.43,2.09-1.27h1.76Zm-6.28-2.7h4.53c.07-1.2-.85-2.23-2.05-2.29-.06,0-.11,0-.17,0-1.27,0-2.3,1.01-2.31,2.28,0,0,0,.01,0,.02Z"/></g></svg>