<svg xmlns="http://www.w3.org/2000/svg" width="78" height="78" baseProfile="tiny" version="1.1" viewBox="11 11 78 78">
<style>rect{shape-rendering:optimizespeed}</style>
<rect width="78" height="78" x="11" y="11" fill="#fff" rx="4"/>
<path fill="#000" d="M17 17h2v2h-2zM19 17h2v2h-2zM21 17h2v2h-2zM23 17h2v2h-2zM25 17h2v2h-2zM27 17h2v2h-2zM29 17h2v2h-2zM33 17h2v2h-2zM45 17h2v2h-2zM47 17h2v2h-2zM49 17h2v2h-2zM59 17h2v2h-2zM61 17h2v2h-2zM69 17h2v2h-2zM71 17h2v2h-2zM73 17h2v2h-2zM75 17h2v2h-2zM77 17h2v2h-2zM79 17h2v2h-2zM81 17h2v2h-2zM17 19h2v2h-2zM29 19h2v2h-2zM33 19h2v2h-2zM39 19h2v2h-2zM41 19h2v2h-2zM43 19h2v2h-2zM49 19h2v2h-2zM55 19h2v2h-2zM59 19h2v2h-2zM61 19h2v2h-2zM65 19h2v2h-2zM69 19h2v2h-2zM81 19h2v2h-2zM17 21h2v2h-2zM21 21h2v2h-2zM23 21h2v2h-2zM25 21h2v2h-2zM29 21h2v2h-2zM33 21h2v2h-2zM35 21h2v2h-2zM41 21h2v2h-2zM49 21h2v2h-2zM51 21h2v2h-2zM55 21h2v2h-2zM59 21h2v2h-2zM63 21h2v2h-2zM65 21h2v2h-2zM69 21h2v2h-2zM73 21h2v2h-2zM75 21h2v2h-2zM77 21h2v2h-2zM81 21h2v2h-2zM17 23h2v2h-2zM21 23h2v2h-2zM23 23h2v2h-2zM25 23h2v2h-2zM29 23h2v2h-2zM33 23h2v2h-2zM35 23h2v2h-2zM37 23h2v2h-2zM41 23h2v2h-2zM43 23h2v2h-2zM45 23h2v2h-2zM49 23h2v2h-2zM51 23h2v2h-2zM53 23h2v2h-2zM57 23h2v2h-2zM63 23h2v2h-2zM65 23h2v2h-2zM69 23h2v2h-2zM73 23h2v2h-2zM75 23h2v2h-2zM77 23h2v2h-2zM81 23h2v2h-2zM17 25h2v2h-2zM21 25h2v2h-2zM23 25h2v2h-2zM25 25h2v2h-2zM29 25h2v2h-2zM35 25h2v2h-2zM37 25h2v2h-2zM41 25h2v2h-2zM43 25h2v2h-2zM45 25h2v2h-2zM47 25h2v2h-2zM49 25h2v2h-2zM51 25h2v2h-2zM61 25h2v2h-2zM63 25h2v2h-2zM69 25h2v2h-2zM73 25h2v2h-2zM75 25h2v2h-2zM77 25h2v2h-2zM81 25h2v2h-2zM17 27h2v2h-2zM29 27h2v2h-2zM33 27h2v2h-2zM35 27h2v2h-2zM37 27h2v2h-2zM43 27h2v2h-2zM45 27h2v2h-2zM49 27h2v2h-2zM51 27h2v2h-2zM55 27h2v2h-2zM61 27h2v2h-2zM69 27h2v2h-2zM81 27h2v2h-2zM17 29h2v2h-2zM19 29h2v2h-2zM21 29h2v2h-2zM23 29h2v2h-2zM25 29h2v2h-2zM27 29h2v2h-2zM29 29h2v2h-2zM33 29h2v2h-2zM37 29h2v2h-2zM41 29h2v2h-2zM45 29h2v2h-2zM49 29h2v2h-2zM53 29h2v2h-2zM57 29h2v2h-2zM61 29h2v2h-2zM65 29h2v2h-2zM69 29h2v2h-2zM71 29h2v2h-2zM73 29h2v2h-2zM75 29h2v2h-2zM77 29h2v2h-2zM79 29h2v2h-2zM81 29h2v2h-2zM37 31h2v2h-2zM39 31h2v2h-2zM45 31h2v2h-2zM49 31h2v2h-2zM51 31h2v2h-2zM53 31h2v2h-2zM57 31h2v2h-2zM59 31h2v2h-2zM61 31h2v2h-2zM17 33h2v2h-2zM19 33h2v2h-2zM25 33h2v2h-2zM27 33h2v2h-2zM29 33h2v2h-2zM37 33h2v2h-2zM41 33h2v2h-2zM51 33h2v2h-2zM55 33h2v2h-2zM59 33h2v2h-2zM71 33h2v2h-2zM75 33h2v2h-2zM77 33h2v2h-2zM79 33h2v2h-2zM81 33h2v2h-2zM17 35h2v2h-2zM21 35h2v2h-2zM27 35h2v2h-2zM45 35h2v2h-2zM47 35h2v2h-2zM49 35h2v2h-2zM53 35h2v2h-2zM59 35h2v2h-2zM61 35h2v2h-2zM63 35h2v2h-2zM67 35h2v2h-2zM71 35h2v2h-2zM77 35h2v2h-2zM19 37h2v2h-2zM23 37h2v2h-2zM25 37h2v2h-2zM29 37h2v2h-2zM31 37h2v2h-2zM33 37h2v2h-2zM35 37h2v2h-2zM37 37h2v2h-2zM43 37h2v2h-2zM45 37h2v2h-2zM47 37h2v2h-2zM51 37h2v2h-2zM53 37h2v2h-2zM59 37h2v2h-2zM63 37h2v2h-2zM65 37h2v2h-2zM69 37h2v2h-2zM71 37h2v2h-2zM73 37h2v2h-2zM77 37h2v2h-2zM79 37h2v2h-2zM25 39h2v2h-2zM27 39h2v2h-2zM31 39h2v2h-2zM33 39h2v2h-2zM35 39h2v2h-2zM41 39h2v2h-2zM47 39h2v2h-2zM49 39h2v2h-2zM51 39h2v2h-2zM55 39h2v2h-2zM59 39h2v2h-2zM63 39h2v2h-2zM65 39h2v2h-2zM69 39h2v2h-2zM73 39h2v2h-2zM75 39h2v2h-2zM17 41h2v2h-2zM19 41h2v2h-2zM21 41h2v2h-2zM27 41h2v2h-2zM29 41h2v2h-2zM31 41h2v2h-2zM33 41h2v2h-2zM39 41h2v2h-2zM41 41h2v2h-2zM51 41h2v2h-2zM57 41h2v2h-2zM59 41h2v2h-2zM61 41h2v2h-2zM67 41h2v2h-2zM69 41h2v2h-2zM73 41h2v2h-2zM75 41h2v2h-2zM79 41h2v2h-2zM81 41h2v2h-2zM21 43h2v2h-2zM23 43h2v2h-2zM25 43h2v2h-2zM33 43h2v2h-2zM35 43h2v2h-2zM37 43h2v2h-2zM41 43h2v2h-2zM43 43h2v2h-2zM45 43h2v2h-2zM47 43h2v2h-2zM49 43h2v2h-2zM53 43h2v2h-2zM59 43h2v2h-2zM61 43h2v2h-2zM63 43h2v2h-2zM67 43h2v2h-2zM71 43h2v2h-2zM19 45h2v2h-2zM23 45h2v2h-2zM29 45h2v2h-2zM37 45h2v2h-2zM39 45h2v2h-2zM45 45h2v2h-2zM47 45h2v2h-2zM49 45h2v2h-2zM51 45h2v2h-2zM53 45h2v2h-2zM61 45h2v2h-2zM63 45h2v2h-2zM67 45h2v2h-2zM69 45h2v2h-2zM73 45h2v2h-2zM75 45h2v2h-2zM77 45h2v2h-2zM79 45h2v2h-2zM19 47h2v2h-2zM21 47h2v2h-2zM23 47h2v2h-2zM27 47h2v2h-2zM31 47h2v2h-2zM33 47h2v2h-2zM37 47h2v2h-2zM41 47h2v2h-2zM45 47h2v2h-2zM47 47h2v2h-2zM51 47h2v2h-2zM53 47h2v2h-2zM57 47h2v2h-2zM59 47h2v2h-2zM61 47h2v2h-2zM69 47h2v2h-2zM71 47h2v2h-2zM73 47h2v2h-2zM75 47h2v2h-2zM17 49h2v2h-2zM25 49h2v2h-2zM29 49h2v2h-2zM31 49h2v2h-2zM33 49h2v2h-2zM41 49h2v2h-2zM45 49h2v2h-2zM47 49h2v2h-2zM51 49h2v2h-2zM55 49h2v2h-2zM57 49h2v2h-2zM59 49h2v2h-2zM63 49h2v2h-2zM65 49h2v2h-2zM69 49h2v2h-2zM73 49h2v2h-2zM81 49h2v2h-2zM25 51h2v2h-2zM27 51h2v2h-2zM31 51h2v2h-2zM33 51h2v2h-2zM35 51h2v2h-2zM43 51h2v2h-2zM45 51h2v2h-2zM47 51h2v2h-2zM49 51h2v2h-2zM53 51h2v2h-2zM61 51h2v2h-2zM63 51h2v2h-2zM71 51h2v2h-2zM75 51h2v2h-2zM21 53h2v2h-2zM23 53h2v2h-2zM25 53h2v2h-2zM29 53h2v2h-2zM33 53h2v2h-2zM39 53h2v2h-2zM45 53h2v2h-2zM47 53h2v2h-2zM49 53h2v2h-2zM51 53h2v2h-2zM53 53h2v2h-2zM57 53h2v2h-2zM59 53h2v2h-2zM61 53h2v2h-2zM63 53h2v2h-2zM71 53h2v2h-2zM77 53h2v2h-2zM79 53h2v2h-2zM17 55h2v2h-2zM27 55h2v2h-2zM37 55h2v2h-2zM45 55h2v2h-2zM49 55h2v2h-2zM51 55h2v2h-2zM53 55h2v2h-2zM59 55h2v2h-2zM63 55h2v2h-2zM65 55h2v2h-2zM67 55h2v2h-2zM69 55h2v2h-2zM75 55h2v2h-2zM19 57h2v2h-2zM21 57h2v2h-2zM29 57h2v2h-2zM31 57h2v2h-2zM35 57h2v2h-2zM37 57h2v2h-2zM45 57h2v2h-2zM51 57h2v2h-2zM55 57h2v2h-2zM57 57h2v2h-2zM59 57h2v2h-2zM61 57h2v2h-2zM65 57h2v2h-2zM69 57h2v2h-2zM73 57h2v2h-2zM81 57h2v2h-2zM17 59h2v2h-2zM19 59h2v2h-2zM21 59h2v2h-2zM27 59h2v2h-2zM31 59h2v2h-2zM33 59h2v2h-2zM35 59h2v2h-2zM39 59h2v2h-2zM41 59h2v2h-2zM43 59h2v2h-2zM47 59h2v2h-2zM49 59h2v2h-2zM63 59h2v2h-2zM75 59h2v2h-2zM21 61h2v2h-2zM23 61h2v2h-2zM27 61h2v2h-2zM29 61h2v2h-2zM37 61h2v2h-2zM39 61h2v2h-2zM41 61h2v2h-2zM43 61h2v2h-2zM47 61h2v2h-2zM51 61h2v2h-2zM61 61h2v2h-2zM63 61h2v2h-2zM65 61h2v2h-2zM67 61h2v2h-2zM77 61h2v2h-2zM79 61h2v2h-2zM21 63h2v2h-2zM25 63h2v2h-2zM33 63h2v2h-2zM35 63h2v2h-2zM39 63h2v2h-2zM41 63h2v2h-2zM45 63h2v2h-2zM47 63h2v2h-2zM51 63h2v2h-2zM55 63h2v2h-2zM57 63h2v2h-2zM59 63h2v2h-2zM61 63h2v2h-2zM63 63h2v2h-2zM71 63h2v2h-2zM73 63h2v2h-2zM17 65h2v2h-2zM19 65h2v2h-2zM25 65h2v2h-2zM27 65h2v2h-2zM29 65h2v2h-2zM31 65h2v2h-2zM33 65h2v2h-2zM41 65h2v2h-2zM43 65h2v2h-2zM47 65h2v2h-2zM49 65h2v2h-2zM51 65h2v2h-2zM55 65h2v2h-2zM57 65h2v2h-2zM59 65h2v2h-2zM61 65h2v2h-2zM65 65h2v2h-2zM67 65h2v2h-2zM69 65h2v2h-2zM71 65h2v2h-2zM73 65h2v2h-2zM79 65h2v2h-2zM33 67h2v2h-2zM39 67h2v2h-2zM41 67h2v2h-2zM43 67h2v2h-2zM45 67h2v2h-2zM47 67h2v2h-2zM51 67h2v2h-2zM53 67h2v2h-2zM57 67h2v2h-2zM59 67h2v2h-2zM65 67h2v2h-2zM73 67h2v2h-2zM75 67h2v2h-2zM77 67h2v2h-2zM79 67h2v2h-2zM17 69h2v2h-2zM19 69h2v2h-2zM21 69h2v2h-2zM23 69h2v2h-2zM25 69h2v2h-2zM27 69h2v2h-2zM29 69h2v2h-2zM35 69h2v2h-2zM39 69h2v2h-2zM47 69h2v2h-2zM51 69h2v2h-2zM53 69h2v2h-2zM59 69h2v2h-2zM61 69h2v2h-2zM65 69h2v2h-2zM69 69h2v2h-2zM73 69h2v2h-2zM77 69h2v2h-2zM79 69h2v2h-2zM17 71h2v2h-2zM29 71h2v2h-2zM33 71h2v2h-2zM35 71h2v2h-2zM37 71h2v2h-2zM41 71h2v2h-2zM45 71h2v2h-2zM49 71h2v2h-2zM51 71h2v2h-2zM55 71h2v2h-2zM59 71h2v2h-2zM65 71h2v2h-2zM73 71h2v2h-2zM17 73h2v2h-2zM21 73h2v2h-2zM23 73h2v2h-2zM25 73h2v2h-2zM29 73h2v2h-2zM33 73h2v2h-2zM37 73h2v2h-2zM41 73h2v2h-2zM45 73h2v2h-2zM47 73h2v2h-2zM51 73h2v2h-2zM59 73h2v2h-2zM65 73h2v2h-2zM67 73h2v2h-2zM69 73h2v2h-2zM71 73h2v2h-2zM73 73h2v2h-2zM79 73h2v2h-2zM17 75h2v2h-2zM21 75h2v2h-2zM23 75h2v2h-2zM25 75h2v2h-2zM29 75h2v2h-2zM37 75h2v2h-2zM43 75h2v2h-2zM45 75h2v2h-2zM47 75h2v2h-2zM49 75h2v2h-2zM51 75h2v2h-2zM53 75h2v2h-2zM61 75h2v2h-2zM63 75h2v2h-2zM67 75h2v2h-2zM69 75h2v2h-2zM71 75h2v2h-2zM73 75h2v2h-2zM75 75h2v2h-2zM79 75h2v2h-2zM81 75h2v2h-2zM17 77h2v2h-2zM21 77h2v2h-2zM23 77h2v2h-2zM25 77h2v2h-2zM29 77h2v2h-2zM37 77h2v2h-2zM39 77h2v2h-2zM45 77h2v2h-2zM47 77h2v2h-2zM49 77h2v2h-2zM51 77h2v2h-2zM57 77h2v2h-2zM59 77h2v2h-2zM61 77h2v2h-2zM65 77h2v2h-2zM69 77h2v2h-2zM73 77h2v2h-2zM75 77h2v2h-2zM79 77h2v2h-2zM17 79h2v2h-2zM29 79h2v2h-2zM33 79h2v2h-2zM37 79h2v2h-2zM45 79h2v2h-2zM51 79h2v2h-2zM53 79h2v2h-2zM59 79h2v2h-2zM61 79h2v2h-2zM65 79h2v2h-2zM67 79h2v2h-2zM69 79h2v2h-2zM71 79h2v2h-2zM73 79h2v2h-2zM17 81h2v2h-2zM19 81h2v2h-2zM21 81h2v2h-2zM23 81h2v2h-2zM25 81h2v2h-2zM27 81h2v2h-2zM29 81h2v2h-2zM33 81h2v2h-2zM37 81h2v2h-2zM45 81h2v2h-2zM47 81h2v2h-2zM51 81h2v2h-2zM55 81h2v2h-2zM59 81h2v2h-2zM61 81h2v2h-2zM65 81h2v2h-2zM71 81h2v2h-2zM81 81h2v2h-2z"/>
</svg>
