<svg id="Layer_1" data-name="Layer 1" xmlns="http://www.w3.org/2000/svg" xmlns:xlink="http://www.w3.org/1999/xlink" viewBox="0 0 214 57"><defs><style>.cls-1{fill:none;}.cls-2{clip-path:url(#clip-path);}.cls-3{fill:#fff;}</style><clipPath id="clip-path"><rect class="cls-1" x="9.77" y="1.75" width="194.45" height="53.5"/></clipPath></defs><g class="cls-2"><path class="cls-3" d="M83.84,11.9c0-8.38-10.51-10.15-17.38-10.15-12.89,0-25.06,5.86-33.14,9.85S9.77,26.61,9.77,32.52c0,2.73,2.73,3.84,5,3.84a14.64,14.64,0,0,0,5.36-.91,1.1,1.1,0,0,0,.71-1.06,1.09,1.09,0,0,0-1.06-1.12,2.52,2.52,0,0,0-.66.11,12.46,12.46,0,0,1-4.35.85c-1.06,0-2.77-.5-2.77-1.71,0-4.1,13.74-14.55,23.49-19.3,9.24-4.5,20.41-9.2,31-9.2,5.71,0,15,1.27,15,8.34,0,8.18-9.85,16.52-15.66,20.71-3.39.31-6.92.91-9.45,2.28.15-3.19.41-6.82.61-9.76.25-3.43.55-6.56.55-9.69a18,18,0,0,0-.25-3.74,1.33,1.33,0,0,0-1.26-1,1.22,1.22,0,0,0-1.26,1.16c0,1.26.3,1.82.3,3.64,0,3.53-.3,6.51-.51,9.49-.25,3.44-.55,7.89-.7,11.42a2.45,2.45,0,0,0-.86,1.72,1.87,1.87,0,0,0,.81,1.57c-.06,2.93-.11,6.31-.21,8.73,0,1.32-.25,3.79-.25,4.35a1.13,1.13,0,0,0,1.16,1.11,1.34,1.34,0,0,0,.86-.25,4.27,4.27,0,0,0,3,1.16c9.4,0,19.5-8.89,19.5-15.51,0-4.34-4.85-6.36-8.33-6.72,6.41-5,14.4-12.33,14.4-21.12M62.77,35.55a19.43,19.43,0,0,1-6.62,2.83v-.56a17.81,17.81,0,0,1,6.62-2.27m12.58,4.19c0,5.81-9.5,13.34-17.08,13.34a2,2,0,0,1-2-2.07,5.81,5.81,0,0,1,1.37-3.34,1,1,0,0,0,.3-.76,1.14,1.14,0,0,0-1.11-1.16,1,1,0,0,0-.81.36c0-1.87.1-3.84.1-5.61,2.73-.31,6.16-2.12,10.46-5.2a8.48,8.48,0,0,1,1.67-.11c3.94,0,7.12,2.13,7.12,4.55m9.8,2.93a.18.18,0,0,1,.2.2c0,1.17-1.51,2.88-2.68,4.2,0-2.13,1.67-4.4,2.48-4.4m-.15,7a1.81,1.81,0,0,1-1.67-.81c1.82-1.46,4-4,4-6.06a1.83,1.83,0,0,0-2-2c-2.57,0-4.8,3.34-4.8,6.47a4.08,4.08,0,0,0,4.3,4.39c3.23,0,6.77-3.48,8.38-5.86a2.17,2.17,0,0,0,.46-1.11.8.8,0,0,0-.76-.81,1.23,1.23,0,0,0-1,.61c-1.62,2.17-4.29,5.15-7,5.15m21.62-3.84a2.26,2.26,0,0,0,.46-1.11.85.85,0,0,0-.86-.81c-.41,0-.61.21-.91.61-1.22,1.82-3.44,4.39-5.31,4.39-.45,0-.81-.25-.81-1s.11-1.87.11-2.78c0-.76-.41-1.32-1.12-1.32s-1.56,1-2.47,2c-.66.71-1.37,1.47-2,2.13,0-1.52.4-2.53.4-3.29,0-.6-.3-1-.86-1a1.07,1.07,0,0,0-1.06.91,17.07,17.07,0,0,0-.5,4.14c0,1.06.3,2,1.36,2,.86,0,1.67-.86,2.73-2,.61-.65,1.06-1.16,1.41-1.56a6.37,6.37,0,0,0-.1,1.06c0,1.61.81,2.78,2.58,2.78,2.88,0,5.56-3,7-5.21M198.47,3.37c-8.74,1.16-18.85,1.76-28.4,2.27-10.81.56-24.9,1.46-37.58,3.13C125.87,9.63,117,13,117,20.39c0,8.29,8.84,15.66,15,19.65a167.89,167.89,0,0,0,20.31,11.27c1.92.91,3.49,3.08,5.66,3.08,2.58,0,3.49-2.17,3.49-4.29,0-4.75-1.22-9.25-1.22-14.91,0-14.5,1.57-16.57,1.57-17.78a1.08,1.08,0,0,0-1.11-1.21,1.58,1.58,0,0,0-1.47,1.36c-1.21,5.31-1.41,9.05-1.41,17.74,0,5.7,1.21,10.35,1.21,14.8,0,.91-.1,2-1.06,2s-2.78-1.92-4.65-2.83a182.73,182.73,0,0,1-20-11.17c-5.92-3.84-14-10.61-14-17.73,0-5.61,7.23-8.54,13.44-9.4,12.63-1.66,26.63-2.52,37.39-3.08,11.31-.6,22.23-.86,32.78-2.83.81-.15,1.27-.65,1.27-1.26a1.09,1.09,0,0,0-1.16-1.16c-.91,0-2.68.45-4.6.71m-23.7,48.09c1.17,0,3.24-2.17,3.24-3.84s-1.06-1.77-2.28-1.77S173.51,49,173.51,50a1.35,1.35,0,0,0,1.26,1.51"/></g></svg>