<svg width="140" height="94" viewBox="0 0 140 94" fill="none" xmlns="http://www.w3.org/2000/svg">
<path fill-rule="evenodd" clip-rule="evenodd" d="M59.6 35.4H61.7V24H59.6V35.4Z" fill="black"/>
<path fill-rule="evenodd" clip-rule="evenodd" d="M71.3 31.9H64.7C64.8 32.5 65 33 65.5 33.3C65.9 33.6 66.4 33.8 67.1 33.8C67.9 33.8 68.5 33.5 69.1 33L70.8 33.8C70.4 34.4 69.8 34.9 69.2 35.2C68.6 35.5 67.9 35.6 67 35.6C65.7 35.6 64.7 35.2 63.9 34.4C63.1 33.6 62.7 32.6 62.7 31.3C62.7 30 63.1 29 63.9 28.2C64.7 27.4 65.7 27 66.9 27C68.2 27 69.2 27.4 70.1 28.2C70.9 29 71.3 30.1 71.3 31.5V31.9ZM69.3 30.3C69.2 29.8 68.9 29.5 68.5 29.2C68.1 28.9 67.6 28.8 67.1 28.8C66.5 28.8 66 29 65.6 29.3C65.3 29.5 65.1 29.9 64.8 30.4H69.3V30.3Z" fill="black"/>
<path fill-rule="evenodd" clip-rule="evenodd" d="M78.7 27.2H80.8V35.4H78.7V34.5C78.3 34.9 77.9 35.2 77.5 35.3C77.1 35.5 76.7 35.5 76.2 35.5C75.1 35.5 74.2 35.1 73.4 34.3C72.6 33.5 72.2 32.4 72.2 31.2C72.2 29.9 72.6 28.9 73.3 28.1C74 27.3 75 26.9 76 26.9C76.5 26.9 77 27 77.4 27.2C77.8 27.4 78.2 27.7 78.6 28V27.2H78.7ZM76.5 28.9C75.9 28.9 75.3 29.1 74.9 29.6C74.5 30 74.3 30.6 74.3 31.3C74.3 32 74.5 32.6 74.9 33.1C75.3 33.6 75.9 33.8 76.5 33.8C77.1 33.8 77.7 33.6 78.1 33.1C78.5 32.6 78.7 32.1 78.7 31.3C78.7 30.6 78.5 30 78.1 29.6C77.7 29.1 77.2 28.9 76.5 28.9Z" fill="black"/>
<path fill-rule="evenodd" clip-rule="evenodd" d="M88.5 24H90.6V35.4H88.5V34.5C88.1 34.9 87.7 35.2 87.3 35.3C86.9 35.5 86.5 35.5 86 35.5C84.9 35.5 84 35.1 83.2 34.3C82.4 33.5 82 32.4 82 31.2C82 29.9 82.4 28.9 83.1 28.1C83.9 27.3 84.8 26.9 85.8 26.9C86.3 26.9 86.8 27 87.2 27.2C87.6 27.4 88 27.7 88.4 28V24H88.5ZM86.4 28.9C85.8 28.9 85.2 29.1 84.8 29.6C84.4 30 84.2 30.6 84.2 31.3C84.2 32 84.4 32.6 84.8 33.1C85.2 33.6 85.8 33.8 86.4 33.8C87 33.8 87.6 33.6 88 33.1C88.4 32.6 88.6 32.1 88.6 31.3C88.6 30.6 88.4 30 88 29.6C87.5 29.1 87 28.9 86.4 28.9Z" fill="black"/>
<path fill-rule="evenodd" clip-rule="evenodd" d="M100.5 31.9H93.9C94 32.5 94.2 33 94.7 33.3C95.1 33.6 95.6 33.8 96.3 33.8C97.1 33.8 97.7 33.5 98.3 33L100 33.8C99.6 34.4 99 34.9 98.4 35.2C97.8 35.5 97.1 35.6 96.2 35.6C94.9 35.6 93.9 35.2 93.1 34.4C92.3 33.6 91.9 32.6 91.9 31.3C91.9 30 92.3 29 93.1 28.2C93.9 27.4 94.9 27 96.1 27C97.4 27 98.4 27.4 99.3 28.2C100.1 29 100.5 30.1 100.5 31.5V31.9ZM98.4 30.3C98.3 29.8 98 29.5 97.6 29.2C97.2 28.9 96.7 28.8 96.2 28.8C95.6 28.8 95.1 29 94.7 29.3C94.4 29.5 94.2 29.9 93.9 30.4H98.4V30.3Z" fill="black"/>
<path fill-rule="evenodd" clip-rule="evenodd" d="M101.3 27.2H103.1V28.2C103.3 27.8 103.5 27.5 103.9 27.3C104.2 27.1 104.6 27 104.9 27C105.2 27 105.4 27.1 105.7 27.2L105.1 29C104.9 28.9 104.7 28.8 104.5 28.8C104.2 28.8 103.9 29 103.7 29.4C103.5 29.8 103.4 30.6 103.4 31.7V32.1V35.4H101.4V27.2H101.3Z" fill="black"/>
<path fill-rule="evenodd" clip-rule="evenodd" d="M111.4 28.3L110.1 29.6C109.6 29.1 109.1 28.8 108.7 28.8C108.5 28.8 108.3 28.9 108.2 29C108.1 29.1 108 29.2 108 29.4C108 29.5 108 29.6 108.1 29.7C108.2 29.8 108.4 29.9 108.7 30.1L109.5 30.5C110.3 30.9 110.8 31.3 111.1 31.7C111.4 32.1 111.5 32.6 111.5 33.1C111.5 33.8 111.2 34.4 110.7 34.9C110.2 35.4 109.4 35.6 108.5 35.6C107.3 35.6 106.3 35.1 105.6 34.2L106.9 32.8C107.1 33.1 107.4 33.3 107.7 33.5C108 33.7 108.3 33.8 108.6 33.8C108.9 33.8 109.1 33.7 109.3 33.6C109.5 33.5 109.5 33.3 109.5 33.1C109.5 32.8 109.2 32.5 108.6 32.2L107.9 31.9C106.6 31.2 105.9 30.4 105.9 29.4C105.9 28.7 106.1 28.2 106.6 27.7C107.1 27.2 107.7 27 108.5 27C109 27 109.5 27.1 110 27.4C110.7 27.6 111.1 27.9 111.4 28.3Z" fill="black"/>
<path fill-rule="evenodd" clip-rule="evenodd" d="M58.8 44.4H59.5C59.5 43.3 59.5 42.7 59.6 42.5C59.7 42 59.8 41.7 60.2 41.4C60.5 41.1 61 41 61.6 41C62 41 62.5 41.1 63 41.3V42.9C62.7 42.8 62.5 42.8 62.3 42.8C62.1 42.8 61.9 42.9 61.8 43C61.7 43.1 61.7 43.2 61.7 43.5V44.5H63V46.3H61.7V52.8H59.6V46.3H58.9V44.4H58.8Z" fill="black"/>
<path fill-rule="evenodd" clip-rule="evenodd" d="M67.6 44.2C68.4 44.2 69.1 44.4 69.8 44.8C70.5 45.2 71 45.7 71.4 46.4C71.8 47.1 72 47.8 72 48.6C72 49.4 71.8 50.1 71.4 50.8C71 51.5 70.5 52 69.8 52.4C69.1 52.8 68.4 53 67.6 53C66.4 53 65.4 52.6 64.6 51.7C63.8 50.9 63.4 49.8 63.4 48.6C63.4 47.3 63.9 46.2 64.8 45.4C65.6 44.5 66.5 44.2 67.6 44.2ZM67.6 46.1C67 46.1 66.4 46.3 66 46.8C65.6 47.2 65.4 47.8 65.4 48.5C65.4 49.2 65.6 49.8 66 50.2C66.4 50.6 67 50.9 67.6 50.9C68.2 50.9 68.8 50.7 69.2 50.2C69.6 49.8 69.8 49.2 69.8 48.5C69.8 47.8 69.6 47.2 69.2 46.8C68.8 46.3 68.3 46.1 67.6 46.1Z" fill="black"/>
<path fill-rule="evenodd" clip-rule="evenodd" d="M72.8 44.4H74.6V45.4C74.8 45 75 44.7 75.4 44.5C75.7 44.3 76.1 44.2 76.4 44.2C76.7 44.2 76.9 44.3 77.2 44.4L76.6 46.2C76.3 46 76.1 46 75.9 46C75.6 46 75.3 46.2 75.1 46.6C74.9 47 74.8 47.8 74.8 48.9V49.3V52.6H72.8V44.4V44.4Z" fill="black"/>
<path fill-rule="evenodd" clip-rule="evenodd" d="M89.8 46L88.1 47C87.8 46.7 87.5 46.4 87.1 46.3C86.8 46.2 86.4 46.1 86 46.1C85.2 46.1 84.6 46.3 84.1 46.8C83.6 47.3 83.4 47.8 83.4 48.6C83.4 49.3 83.6 49.9 84.1 50.3C84.6 50.7 85.2 51 85.9 51C86.8 51 87.5 50.7 88.1 50.1L89.7 51.2C88.8 52.3 87.6 52.9 86 52.9C84.6 52.9 83.4 52.5 82.6 51.6C81.8 50.7 81.4 49.7 81.4 48.6C81.4 47.8 81.6 47.1 82 46.4C82.4 45.7 83 45.2 83.7 44.8C84.4 44.4 85.2 44.2 86.1 44.2C86.9 44.2 87.6 44.4 88.3 44.7C88.9 45 89.4 45.4 89.8 46Z" fill="black"/>
<path fill-rule="evenodd" clip-rule="evenodd" d="M91.1 52.6H93.2V41.2H91.1V52.6Z" fill="black"/>
<path fill-rule="evenodd" clip-rule="evenodd" d="M95.4 41C95.8 41 96.1 41.1 96.3 41.4C96.6 41.7 96.7 42 96.7 42.4C96.7 42.8 96.6 43.1 96.3 43.3C96 43.6 95.7 43.7 95.4 43.7C95 43.7 94.7 43.6 94.5 43.3C94.2 43 94.1 42.7 94.1 42.3C94.1 41.9 94.2 41.6 94.5 41.4C94.7 41.1 95.1 41 95.4 41ZM94.4 44.4H96.5V52.6H94.4V44.4Z" fill="black"/>
<path fill-rule="evenodd" clip-rule="evenodd" d="M97.9 44.4H100V45.3C100.4 44.9 100.7 44.6 101.2 44.4C101.6 44.2 102.1 44.1 102.6 44.1C103.1 44.1 103.6 44.2 104 44.5C104.4 44.8 104.7 45.1 105 45.6C105.3 45.1 105.7 44.7 106.2 44.5C106.7 44.2 107.2 44.1 107.8 44.1C108.4 44.1 108.9 44.2 109.3 44.5C109.7 44.8 110.1 45.1 110.3 45.6C110.5 46 110.6 46.8 110.6 47.7V52.5H108.5V48.3C108.5 47.4 108.4 46.7 108.2 46.4C108 46.1 107.6 45.9 107.2 45.9C106.8 45.9 106.5 46 106.2 46.2C105.9 46.4 105.7 46.7 105.6 47C105.5 47.4 105.4 47.9 105.4 48.7V52.4H103.3V48.4C103.3 47.7 103.2 47.1 103.1 46.8C103 46.5 102.8 46.2 102.6 46.1C102.4 45.9 102.1 45.9 101.8 45.9C101.5 45.9 101.1 46 100.9 46.2C100.6 46.4 100.4 46.7 100.3 47.1C100.2 47.5 100.1 48 100.1 48.8V52.5H98V44.4H97.9Z" fill="black"/>
<path fill-rule="evenodd" clip-rule="evenodd" d="M118.2 44.4H120.3V52.6H118.2V51.7C117.8 52.1 117.4 52.4 117 52.5C116.6 52.7 116.2 52.7 115.7 52.7C114.6 52.7 113.7 52.3 112.9 51.5C112.1 50.7 111.7 49.6 111.7 48.4C111.7 47.1 112.1 46.1 112.8 45.3C113.5 44.5 114.5 44.1 115.5 44.1C116 44.1 116.5 44.2 116.9 44.4C117.3 44.6 117.7 44.9 118.1 45.2V44.4H118.2ZM116 46.1C115.4 46.1 114.8 46.3 114.4 46.8C114 47.2 113.8 47.8 113.8 48.5C113.8 49.2 114 49.8 114.4 50.3C114.8 50.8 115.4 51 116 51C116.6 51 117.2 50.8 117.6 50.3C118 49.8 118.2 49.3 118.2 48.5C118.2 47.8 118 47.2 117.6 46.8C117.2 46.3 116.6 46.1 116 46.1Z" fill="black"/>
<path fill-rule="evenodd" clip-rule="evenodd" d="M122.2 41.3H124.3V44.3H125.5V46.1H124.3V52.6H122.2V46.1H121.1V44.3H122.2V41.3Z" fill="black"/>
<path fill-rule="evenodd" clip-rule="evenodd" d="M134.4 49.1H127.8C127.9 49.7 128.1 50.2 128.6 50.5C129 50.8 129.5 51 130.2 51C131 51 131.6 50.7 132.2 50.2L133.9 51C133.5 51.6 132.9 52.1 132.3 52.4C131.7 52.7 131 52.8 130.1 52.8C128.8 52.8 127.8 52.4 127 51.6C126.2 50.8 125.8 49.8 125.8 48.5C125.8 47.2 126.2 46.2 127 45.4C127.8 44.6 128.8 44.2 130 44.2C131.3 44.2 132.3 44.6 133.2 45.4C134 46.2 134.4 47.3 134.4 48.7V49.1ZM132.3 47.5C132.2 47 131.9 46.7 131.5 46.4C131.1 46.1 130.6 46 130.1 46C129.5 46 129 46.2 128.6 46.5C128.3 46.7 128.1 47.1 127.8 47.6H132.3V47.5Z" fill="black"/>
<path fill-rule="evenodd" clip-rule="evenodd" d="M65.9 61.6H68V69.8H65.9V68.9C65.5 69.3 65.1 69.6 64.7 69.7C64.3 69.9 63.9 69.9 63.4 69.9C62.3 69.9 61.4 69.5 60.6 68.7C59.8 67.9 59.4 66.8 59.4 65.6C59.4 64.3 59.8 63.3 60.5 62.5C61.2 61.7 62.2 61.3 63.2 61.3C63.7 61.3 64.2 61.4 64.6 61.6C65 61.8 65.4 62.1 65.8 62.4V61.6H65.9ZM63.7 63.2C63.1 63.2 62.5 63.4 62.1 63.9C61.7 64.3 61.5 64.9 61.5 65.6C61.5 66.3 61.7 66.9 62.1 67.4C62.5 67.9 63.1 68.1 63.7 68.1C64.3 68.1 64.9 67.9 65.3 67.4C65.7 66.9 65.9 66.4 65.9 65.6C65.9 64.9 65.7 64.3 65.3 63.9C64.9 63.5 64.3 63.2 63.7 63.2Z" fill="black"/>
<path fill-rule="evenodd" clip-rule="evenodd" d="M77.6 63.2L75.9 64.1C75.6 63.8 75.3 63.5 74.9 63.4C74.6 63.3 74.2 63.2 73.8 63.2C73 63.2 72.4 63.4 71.9 63.9C71.4 64.4 71.2 64.9 71.2 65.7C71.2 66.4 71.4 67 71.9 67.4C72.4 67.8 73 68.1 73.7 68.1C74.6 68.1 75.3 67.8 75.9 67.2L77.5 68.3C76.6 69.4 75.4 70 73.8 70C72.4 70 71.2 69.6 70.4 68.7C69.6 67.8 69.2 66.8 69.2 65.7C69.2 64.9 69.4 64.2 69.8 63.5C70.2 62.8 70.8 62.3 71.5 61.9C72.2 61.5 73 61.3 73.9 61.3C74.7 61.3 75.4 61.5 76.1 61.8C76.7 62.2 77.2 62.6 77.6 63.2Z" fill="black"/>
<path fill-rule="evenodd" clip-rule="evenodd" d="M79.4 58.5H81.5V61.5H82.7V63.3H81.5V69.8H79.4V63.3H78.3V61.5H79.4V58.5Z" fill="black"/>
<path fill-rule="evenodd" clip-rule="evenodd" d="M84.2 58.2C84.6 58.2 84.9 58.3 85.1 58.6C85.4 58.9 85.5 59.2 85.5 59.6C85.5 60 85.4 60.3 85.1 60.5C84.8 60.8 84.5 60.9 84.2 60.9C83.8 60.9 83.5 60.8 83.3 60.5C83 60.2 82.9 59.9 82.9 59.5C82.9 59.1 83 58.8 83.3 58.6C83.5 58.3 83.8 58.2 84.2 58.2ZM83.1 61.6H85.2V69.8H83.1V61.6Z" fill="black"/>
<path fill-rule="evenodd" clip-rule="evenodd" d="M90.6 61.3C91.4 61.3 92.1 61.5 92.8 61.9C93.5 62.3 94 62.8 94.4 63.5C94.8 64.2 95 64.9 95 65.7C95 66.5 94.8 67.2 94.4 67.9C94 68.6 93.5 69.1 92.8 69.5C92.1 69.9 91.4 70.1 90.6 70.1C89.4 70.1 88.4 69.7 87.6 68.8C86.8 68 86.4 66.9 86.4 65.7C86.4 64.4 86.9 63.3 87.8 62.5C88.5 61.7 89.5 61.3 90.6 61.3ZM90.6 63.3C90 63.3 89.4 63.5 89 64C88.6 64.4 88.4 65 88.4 65.7C88.4 66.4 88.6 67 89 67.4C89.4 67.8 90 68.1 90.6 68.1C91.2 68.1 91.8 67.9 92.2 67.4C92.6 67 92.8 66.4 92.8 65.7C92.8 65 92.6 64.4 92.2 64C91.8 63.5 91.2 63.3 90.6 63.3Z" fill="black"/>
<path fill-rule="evenodd" clip-rule="evenodd" d="M96.2 61.6H98.3V62.4C98.8 62 99.2 61.7 99.6 61.6C100 61.4 100.4 61.4 100.8 61.4C101.6 61.4 102.3 61.7 102.9 62.3C103.4 62.8 103.6 63.5 103.6 64.4V69.8H101.6V66.2C101.6 65.2 101.6 64.6 101.5 64.2C101.4 63.9 101.3 63.6 101 63.5C100.8 63.3 100.5 63.2 100.2 63.2C99.8 63.2 99.4 63.3 99.1 63.6C98.8 63.9 98.6 64.3 98.5 64.8C98.4 65.1 98.4 65.6 98.4 66.5V69.8H96.3V61.6H96.2Z" fill="black"/>
<path fill-rule="evenodd" clip-rule="evenodd" d="M32.8 27.1C21.9 24.2 10.6 30.7 7.69998 41.6L5.59998 41C8.79998 28.8 21.3 21.6 33.4 24.9C45.5 28.2 52.7 40.6 49.5 52.8C46.2 65 33.8 72.2 21.7 68.9L22.3 66.8C33.2 69.7 44.5 63.2 47.4 52.3C50.3 41.3 43.8 30 32.8 27.1Z" fill="black"/>
<path fill-rule="evenodd" clip-rule="evenodd" d="M35.5 33.3C28 29 18.4 31.6 14 39.1L12.1 38C17.1 29.4 28 26.5 36.6 31.4C45.2 36.4 48.1 47.4 43.2 56C38.2 64.6 27.3 67.5 18.7 62.6L19.8 60.7C27.3 65.1 36.9 62.5 41.3 54.9C45.6 47.3 43 37.7 35.5 33.3Z" fill="black"/>
<path fill-rule="evenodd" clip-rule="evenodd" d="M38.2 44.2C36.6 38.3 30.6 34.9 24.8 36.4L24.2 34.3C31.2 32.4 38.5 36.6 40.3 43.6C42.2 50.7 38 57.9 31 59.8C24 61.7 16.7 57.5 14.9 50.5L17 49.9C18.6 55.8 24.6 59.2 30.4 57.7C36.3 56.1 39.7 50 38.2 44.2Z" fill="black"/>
</svg>
