<?xml version="1.0" encoding="UTF-8"?><svg id="Icons" xmlns="http://www.w3.org/2000/svg" width="96" height="96" viewBox="0 0 96 96"><defs><style>.cls-1{fill:#ff5460;stroke-width:0px;}</style></defs><path class="cls-1" d="m19.26,84h-4.5v-3.87c0-4.35.58-8.61,1.69-12.7-1.33-7.39-1.69-15.09-1.69-18.3,0-20.44,16.6-37.07,37.03-37.12,1.13-.07,3.89.12,8.24.91l.08.02c6,1.33,12.4,1.33,18.4,0l2.74-.61v9.67c0,26.88-18.39,48.74-40.99,48.74h-19.99c-.66,3.04-1.01,6.18-1.01,9.37v3.87Zm2.24-17.75h18.75c20.12,0,36.49-19.85,36.49-44.24v-4.15c-5.8.93-11.84.75-17.57-.51-5.19-.94-7.08-.84-7.1-.84h-.21c-17.99,0-32.62,14.64-32.62,32.63,0,1.89.13,5.4.53,9.48,4.87-9.88,13.04-18.05,23.4-22.8l1.88,4.09c-11.33,5.2-19.76,14.88-23.56,26.36Z"/></svg>