<svg xmlns="http://www.w3.org/2000/svg" width="602" height="72" viewBox="0 0 602 72">
  <path fill="#fff" d="M303.767 30.687l29.595 40.022H314.99l-21.551-29.594-8.044 8.342v21.252H270.1V1.192h15.294v30.39l28.204-30.39h18.472l-28.304 29.495zm51.182 26.119h32.589v13.903h-47.883V1.192h15.294v55.614zM521.534 1.192h15.095v69.517h-13.01l-33.665-44.193v44.193h-15.096V1.192h14.102l32.574 42.804V1.192zM252.383 49.656l9.733 9.832c-7.151 7.646-15.095 12.414-28.502 12.414-20.458 0-35.654-15.791-35.654-35.752v-.2C197.96 16.189 212.857 0 234.209 0c13.109 0 20.954 4.37 27.41 10.726l-9.733 11.222c-5.362-4.866-10.824-7.845-17.775-7.845-11.72 0-20.16 9.732-20.16 21.649v.199c0 11.918 8.242 21.848 20.16 21.848 7.944 0 12.81-3.177 18.272-8.143zm169.113-8.044l9.235-22.544 9.236 22.544h-18.471zM423.878.696l-29.793 70.013h15.592l6.356-15.591h29.396l6.356 15.59h15.989L437.98.697h-14.103zM601.6 57.104v13.605h-52.934V1.192h52.437v13.605h-37.241V28.9h32.772v13.605h-32.772v14.599H601.6zM85.16 56.806h32.589v13.903H69.866V1.192H85.16v55.614zm-41.264-7.051c0 5.164-4.072 7.547-10.825 7.547H14.897V42.009h17.677c7.845 0 11.322 2.88 11.322 7.547v.199zm-29-35.156h15.096c6.455 0 10.03 2.582 10.03 7.15v.199c0 5.164-4.27 7.349-11.023 7.349H14.897V14.599zM46.08 34.362c4.966-2.78 9.137-7.151 9.137-14.996v-.2c0-4.766-1.59-8.64-4.766-11.817-3.973-3.973-10.23-6.157-18.174-6.157H0v69.517h33.07c15.692 0 26.02-6.355 26.02-19.067v-.2c0-9.334-4.966-14.001-13.01-17.08zm105.602 7.25l9.235-22.544 9.237 22.544h-18.472zM154.066.696l-29.793 70.013h15.592l6.355-15.591h29.397l6.355 15.59h15.988L168.167.697h-14.101z" mask="url(#b)" fill-rule="evenodd"/>
</svg>
