<svg width="140" height="94" viewBox="0 0 140 94" fill="none" xmlns="http://www.w3.org/2000/svg">
<path d="M46.74 49.94C46.74 52.35 44.43 53.25 42.37 53.25C41.21 53.25 40.04 53.08 38.94 52.73L39.06 50.75C39.95 51.23 41.01 51.48 42.03 51.48C42.84 51.48 44.05 51.15 44.05 50.17C44.05 48.07 38.89 48.92 38.89 45.55C38.89 43.22 41.36 42.45 43.24 42.45C44.24 42.45 45.3 42.64 46.25 42.93L46.13 44.76C45.32 44.43 44.32 44.22 43.41 44.22C42.64 44.22 41.56 44.43 41.56 45.45C41.56 47.09 46.74 46.43 46.74 49.94V49.94ZM58.28 47.8C58.28 51.15 56.24 53.25 52.92 53.25C49.6 53.25 47.56 51.13 47.56 47.8C47.56 44.47 49.78 42.46 52.92 42.46C56.23 42.46 58.28 44.39 58.28 47.8ZM55.27 47.8C55.27 46.22 54.75 44.39 52.92 44.39C51.09 44.39 50.57 46.22 50.57 47.8C50.57 49.5 51.15 51.29 52.92 51.29C54.69 51.29 55.27 49.52 55.27 47.8ZM69.16 53.02H66.5L66.44 51.29C65.77 52.58 64.57 53.24 63.13 53.24C60.66 53.24 59.68 51.72 59.68 49.35V42.68H62.51V48.71C62.51 49.94 62.7 51.18 64.21 51.18C65.81 51.18 66.25 49.72 66.25 48.35V42.67H69.08V50.67C69.06 51.42 69.08 52.23 69.16 53V53.02V53.02ZM77.14 52.85C76.41 53.1 75.56 53.25 74.79 53.25C72.46 53.25 71.9 51.75 71.9 49.59V44.56H70.07V42.69H71.9V40.59L74.73 39.65V42.69H77.02V44.56H74.73V49.63C74.73 50.5 74.96 51.19 75.96 51.19C76.36 51.19 76.73 51.11 77.08 50.96L77.14 52.85V52.85ZM87.72 53.02H84.89V46.97C84.89 45.74 84.68 44.52 83.16 44.52C81.64 44.52 81.12 45.95 81.12 47.31V53.03H78.29V38.18H81.12V44.4C81.72 43.13 82.85 42.49 84.26 42.49C86.67 42.49 87.69 43.97 87.69 46.32V53.04H87.71L87.72 53.02V53.02ZM105.43 47.8C105.43 50.59 104.27 53.25 101.13 53.25C99.84 53.25 98.59 52.56 98.09 51.36V57.47H95.26V45.68C95.26 44.45 95.22 43.54 95.16 42.67H97.84L97.9 44.42C98.48 43.17 99.83 42.47 101.19 42.47C104.29 42.47 105.43 45.05 105.43 47.81V47.8V47.8ZM102.39 47.8C102.39 46.32 102.04 44.45 100.21 44.45C98.38 44.45 97.99 46.34 97.99 47.8C97.99 49.26 98.45 51.23 100.19 51.23C102.04 51.25 102.39 49.28 102.39 47.8ZM117.05 47.8C117.05 51.15 115.01 53.25 111.69 53.25C108.37 53.25 106.33 51.13 106.33 47.8C106.33 44.47 108.55 42.46 111.69 42.46C114.98 42.46 117.05 44.39 117.05 47.8ZM114.01 47.8C114.01 46.22 113.49 44.39 111.66 44.39C109.83 44.39 109.31 46.22 109.31 47.8C109.31 49.5 109.89 51.29 111.66 51.29C113.43 51.29 114.01 49.52 114.01 47.8ZM121.31 53.02H118.48V38.17H121.31V53.02ZM132.35 48.57H125.55C125.57 50.36 126.88 51.48 128.61 51.48C129.59 51.48 130.83 51.25 131.69 50.77L131.81 52.68C130.67 53.1 129.25 53.24 128.03 53.24C124.6 53.24 122.75 51.22 122.75 47.79C122.75 44.71 124.79 42.45 127.76 42.45C131.05 42.45 132.35 44.78 132.35 47.92V48.57V48.57ZM129.77 47.03C129.77 45.74 129.31 44.16 127.77 44.16C126.23 44.16 125.55 45.8 125.55 47.03H129.77ZM11.32 56.87C9.03001 54.46 7.64001 51.19 7.64001 47.58C7.64001 40.16 13.61 34.13 20.97 34.13C28.33 34.13 34.28 40.16 34.28 47.58C34.28 53.07 31.02 57.81 26.34 59.89V59.6C26.34 56.73 25.78 50.72 22.08 46.73C21.89 46.54 22.08 45.3 24.06 43.86C26.04 42.43 29.17 43.28 29.17 43.01C29.17 42.74 27.92 42.41 26.61 42.16C25.32 41.89 23.49 41.87 22.64 41.58C21.79 41.29 20.37 40.15 18.96 40.44C17.55 40.73 16.59 41.5 15.84 43.02C15.28 44.16 15.84 45.02 14.7 46.16C12.39 48.53 11.35 53.46 11.33 56.89L11.32 56.87V56.87Z" fill="#2E528F"/>
</svg>
