<svg width="140" height="94" viewBox="0 0 140 94" fill="none" xmlns="http://www.w3.org/2000/svg">
<path d="M76.98 37.75V27.59H73.22V24.76H84.36V27.59H80.6V37.75H76.98V37.75ZM93.73 37.75V32.56H89.52V37.75H85.91V24.76H89.52V29.75H93.73V24.76H97.34V37.75H93.73Z" fill="#7FDD9B"/>
<path d="M40.98 53.04C39.96 53.43 38.77 53.62 37.42 53.62C35.27 53.62 33.64 53.05 32.52 51.91C31.4 50.77 30.84 49.11 30.84 46.92C30.84 44.73 31.42 43.1 32.59 41.92C33.76 40.73 35.38 40.14 37.47 40.14C38.62 40.14 39.72 40.32 40.78 40.68V43.42C39.73 43.19 38.83 43.08 38.08 43.08C36.93 43.08 36.07 43.38 35.48 43.99C34.89 44.6 34.6 45.49 34.6 46.68V47.09C34.6 48.25 34.88 49.14 35.45 49.75C36.02 50.36 36.86 50.67 37.97 50.67C38.82 50.67 39.82 50.55 40.97 50.3V53.03H40.98V53.04V53.04ZM42.89 53.39V40.4H46.5V50.47H51.91V53.39H42.89V53.39ZM57.08 40.4H53.47V53.39H57.08V40.4ZM70.69 53.39V45.37L68.44 50.43H65.28L63.03 45.37V53.39H59.92V40.4H63.76L66.9 47.45L70.08 40.4H73.79V53.39H70.69V53.39ZM84.39 53.39L83.68 50.88H79.71L79.04 53.39H75.22L79.79 40.4H83.78L88.35 53.39H84.39V53.39ZM80.38 48.33H83L81.67 43.51L80.38 48.33ZM91.18 53.39V43.23H87.42V40.4H98.56V43.23H94.8V53.39H91.18V53.39Z" fill="#3DCC68"/>
<path d="M42.72 64.78V69H39.24V56.01H44.56C46.04 56.01 47.22 56.4 48.09 57.18C48.96 57.96 49.39 59.03 49.39 60.39C49.39 61.75 48.95 62.82 48.09 63.6C47.22 64.38 46.05 64.77 44.56 64.77H42.72V64.78ZM42.72 62.17H44.03C44.6 62.17 45.05 62.01 45.36 61.7C45.67 61.39 45.83 60.96 45.83 60.41C45.83 59.86 45.67 59.43 45.36 59.12C45.05 58.81 44.6 58.65 44.03 58.65H42.72V62.18V62.17V62.17ZM51.14 69V56.01H54.75V66.08H60.16V69H51.14ZM61.64 69V56.01H70.68V58.75H65.16V61.02H69.65V63.76H65.16V66.27H70.72V69.01H61.64V69V69ZM72.74 68.99V56H77.81C79.81 56 81.35 56.56 82.45 57.69C83.55 58.82 84.1 60.41 84.1 62.49C84.1 63.85 83.86 65.02 83.37 66.01C82.88 67 82.19 67.74 81.28 68.24C80.37 68.75 79.29 69 78.03 69H72.74V68.99ZM76.35 58.76V66.2H77.59C79.47 66.2 80.42 65.01 80.42 62.64V62.3C80.42 59.94 79.49 58.76 77.63 58.76H76.35V58.76ZM93.18 66.44C93.59 66.44 93.98 66.41 94.34 66.36V63.96H92.19V61.45H97.56V68.16C96.95 68.47 96.19 68.73 95.28 68.92C94.39 69.11 93.48 69.21 92.57 69.21C91.21 69.21 90.04 68.94 89.08 68.41C88.13 67.9 87.36 67.1 86.88 66.13C86.38 65.14 86.13 63.97 86.13 62.61C86.13 60.41 86.74 58.71 87.95 57.52C89.17 56.33 90.89 55.73 93.11 55.73C93.77 55.73 94.47 55.81 95.2 55.97C95.93 56.13 96.55 56.33 97.06 56.58V59.21C96.45 59.01 95.84 58.86 95.21 58.76C94.55 58.65 93.96 58.59 93.45 58.59C92.2 58.59 91.28 58.91 90.68 59.54C90.08 60.17 89.78 61.13 89.78 62.42V62.7C89.78 65.2 90.91 66.45 93.19 66.45H93.18V66.44V66.44Z" fill="#1B945A"/>
<path d="M109.14 24.76H100.1V27.5H109.14V24.76V24.76ZM109.15 32.56H100.1V29.77H109.15V32.56ZM109.15 37.83H100.1V35.04H109.15V37.83Z" fill="#7FDD9B"/>
<path d="M109.14 40.35H100.1V43.09H109.14V40.35V40.35ZM109.15 48.09L100.1 48.15V45.36H109.15V48.1V48.09V48.09ZM109.15 53.35L100.1 53.41V50.61H109.15V53.35V53.35Z" fill="#3DCC68"/>
<path d="M109.14 55.97H100.1V58.71H109.14V55.97V55.97ZM109.15 63.71L100.1 63.77V60.98H109.15V63.72V63.71V63.71ZM109.15 68.97L100.1 69.03V66.24H109.15V68.98V68.97V68.97Z" fill="#1B945A"/>
</svg>
